<?xml version="1.0" standalone="no"?>
<!DOCTYPE svg PUBLIC "-//W3C//DTD SVG 20010904//EN"
 "http://www.w3.org/TR/2001/REC-SVG-20010904/DTD/svg10.dtd">
<svg version="1.0" xmlns="http://www.w3.org/2000/svg"
 width="512.000000pt" height="512.000000pt" viewBox="0 0 512.000000 512.000000"
 preserveAspectRatio="xMidYMid meet">

<g transform="translate(0.000000,512.000000) scale(0.100000,-0.100000)"
fill="#000000" stroke="none">
<path d="M1415 5108 c-45 -24 -45 -27 -45 -355 l0 -313 -661 -2 -661 -3 -24
-28 -24 -28 0 -2160 0 -2161 29 -29 29 -29 1262 0 c841 0 1268 3 1280 10 47
25 45 -56 50 2004 l5 1949 508 -1949 c300 -1152 515 -1959 526 -1974 37 -51
23 -54 726 133 585 156 663 179 683 202 12 14 22 34 22 44 0 18 -1022 3941
-1035 3974 -11 27 -60 49 -92 41 -16 -4 -314 -83 -663 -176 -478 -127 -640
-174 -657 -190 l-23 -21 0 492 c0 524 -2 545 -48 570 -29 15 -1159 15 -1187
-1z m1055 -328 l0 -170 -465 0 -465 0 0 170 0 170 465 0 465 0 0 -170z m0
-470 l0 -130 -465 0 -465 0 0 130 0 130 465 0 465 0 0 -130z m-1105 -170 l0
-125 -597 -3 -598 -2 0 130 0 130 598 -2 597 -3 0 -125z m2631 -70 c25 -95 43
-174 41 -177 -6 -6 -1083 -293 -1099 -293 -15 0 -105 336 -94 348 7 7 1099
300 1104 297 2 -2 23 -80 48 -175z m-1526 -1555 l0 -1495 -465 0 -465 0 0
1495 0 1495 465 0 465 0 0 -1495z m-1100 45 l0 -1280 -600 0 -600 0 0 1280 0
1280 600 0 600 0 0 -1280z m2735 1090 c10 -39 15 -73 12 -76 -9 -9 -1097 -297
-1103 -292 -2 3 -14 36 -24 74 -15 53 -17 70 -8 74 36 13 1066 288 1084 289
19 1 24 -9 39 -69z m314 -1204 c133 -510 239 -931 236 -935 -3 -3 -252 -72
-553 -152 -375 -100 -549 -143 -553 -135 -12 21 -490 1868 -487 1878 2 6 251
77 554 158 468 125 550 144 555 131 4 -9 115 -434 248 -945z m291 -1110 c0 -2
18 -73 40 -157 22 -84 39 -157 37 -163 -6 -17 -1101 -305 -1108 -292 -12 22
-84 315 -78 320 6 6 1076 294 1097 295 6 1 12 -1 12 -3z m-3345 -356 l0 -125
-597 -3 -598 -2 0 130 0 130 598 -2 597 -3 0 -125z m1105 -215 l0 -85 -465 0
-465 0 0 85 0 85 465 0 465 0 0 -85z m2370 73 c0 -2 20 -79 45 -173 24 -93 41
-173 37 -176 -4 -4 -248 -70 -542 -148 -294 -78 -542 -144 -550 -146 -12 -4
-25 31 -60 169 -24 96 -42 177 -39 180 6 6 1076 294 1097 295 6 1 12 0 12 -1z
m-3472 -410 l-3 -253 -597 -3 -598 -2 0 255 0 255 600 0 600 0 -2 -252z m1102
-88 l0 -170 -465 0 -465 0 0 170 0 170 465 0 465 0 0 -170z"/>
<path d="M372 3560 c-12 -11 -24 -31 -27 -43 -3 -12 -5 -183 -3 -379 3 -357 3
-358 26 -380 22 -23 23 -23 380 -26 196 -2 367 0 380 3 12 3 31 14 42 25 19
19 20 35 20 398 l0 379 -23 21 c-23 22 -27 22 -398 22 -363 0 -376 -1 -397
-20z m648 -405 l0 -255 -255 0 -255 0 0 255 0 255 255 0 255 0 0 -255z"/>
</g>
</svg>
