<?xml version="1.0" standalone="no"?>
<!DOCTYPE svg PUBLIC "-//W3C//DTD SVG 20010904//EN"
 "http://www.w3.org/TR/2001/REC-SVG-20010904/DTD/svg10.dtd">
<svg version="1.0" xmlns="http://www.w3.org/2000/svg"
 width="512.000000pt" height="512.000000pt" viewBox="0 0 512.000000 512.000000"
 preserveAspectRatio="xMidYMid meet">

<g transform="translate(0.000000,512.000000) scale(0.100000,-0.100000)"
fill="#000000" stroke="none">
<path d="M1773 5050 c-76 -14 -205 -64 -275 -106 -127 -77 -258 -224 -318
-358 -63 -139 -70 -194 -70 -572 l0 -341 -56 -7 c-95 -11 -153 -54 -174 -132
-17 -61 -9 -209 14 -254 38 -74 105 -123 184 -136 39 -6 39 -7 50 -65 24 -128
110 -286 214 -392 l58 -59 0 -184 c0 -182 0 -185 -22 -194 -13 -5 -210 -66
-438 -135 -263 -79 -444 -140 -495 -165 -187 -92 -313 -249 -365 -454 -19 -75
-20 -112 -20 -741 0 -629 1 -663 18 -678 17 -16 135 -17 1495 -17 1328 0 1477
2 1491 16 19 18 21 65 4 82 -9 9 -145 12 -550 12 l-538 0 0 780 c0 429 2 780
4 780 2 0 63 -49 136 -110 73 -60 136 -110 142 -110 26 0 72 41 299 267 l246
245 100 -31 c114 -35 135 -37 157 -15 19 19 21 67 4 82 -7 6 -147 51 -311 101
-165 50 -303 94 -308 97 -5 3 -9 90 -9 193 l0 189 24 16 c43 28 138 154 182
243 24 48 51 121 61 163 l17 77 56 11 c67 14 130 63 162 126 27 51 37 194 18
260 -21 78 -79 121 -174 132 l-56 7 0 341 c0 305 -2 350 -20 423 -38 160 -112
286 -238 405 -89 84 -181 138 -302 179 -82 27 -111 32 -220 35 -69 2 -148 -1
-177 -6z m261 -116 c66 -8 174 -47 244 -89 169 -100 293 -278 328 -475 13 -73
19 -250 9 -250 -3 0 -45 20 -93 44 -186 93 -380 137 -606 137 -220 0 -417 -46
-603 -140 -46 -22 -85 -41 -88 -41 -10 0 -4 177 9 251 44 244 213 445 449 531
117 43 207 51 351 32z m124 -769 c114 -22 220 -59 335 -117 l98 -48 -81 -100
c-45 -55 -82 -100 -84 -100 -2 0 -28 11 -57 24 -85 39 -217 73 -329 87 -200
23 -393 -10 -611 -105 -13 -6 -36 16 -98 92 l-81 100 98 50 c142 73 252 106
447 136 58 9 281 -3 363 -19z m-862 -410 c77 -98 91 -102 177 -59 129 66 294
104 447 104 153 0 318 -38 447 -104 87 -43 99 -39 179 61 l69 88 3 -50 c2 -28
2 -187 0 -355 -4 -284 -6 -310 -27 -375 -41 -124 -89 -203 -181 -296 -72 -73
-100 -93 -180 -132 -209 -102 -411 -102 -620 0 -80 39 -109 60 -180 132 -93
93 -140 170 -181 296 -22 66 -23 88 -27 423 -2 193 -1 352 1 352 3 0 36 -38
73 -85z m-186 -350 c0 -159 -1 -161 -60 -130 -46 24 -60 62 -60 159 0 76 2 86
22 100 12 9 39 16 60 16 l38 0 0 -145z m1718 129 c20 -14 22 -24 22 -100 0
-97 -14 -135 -60 -159 -59 -31 -60 -29 -60 130 l0 145 38 0 c21 0 48 -7 60
-16z m-1247 -1014 c109 -50 209 -72 339 -72 130 0 230 22 339 72 35 17 65 30
67 30 2 0 4 -69 4 -154 l0 -154 -197 -148 c-109 -81 -205 -148 -213 -148 -8 0
-104 67 -212 148 l-198 148 0 154 c0 85 2 154 4 154 2 0 32 -13 67 -30z m56
-517 c100 -76 182 -141 181 -145 -2 -4 -57 -52 -122 -107 l-119 -99 -208 201
c-115 110 -207 203 -205 205 8 7 251 81 270 81 10 1 102 -61 203 -136z m914
97 c71 -23 129 -42 129 -43 0 -2 -94 -93 -208 -204 l-208 -201 -120 99 c-65
55 -119 104 -119 109 0 14 358 279 379 279 10 1 77 -17 147 -39z m-1276 -321
c220 -220 275 -269 304 -269 6 0 66 47 134 103 68 57 129 107 135 111 9 5 12
-183 12 -773 l0 -781 -550 0 -550 0 0 381 c0 377 -3 410 -34 431 -19 13 -45 9
-66 -12 -19 -19 -20 -33 -20 -410 l0 -390 -232 2 -233 3 0 615 c0 676 -1 666
62 799 48 102 151 205 253 254 60 29 494 172 535 176 6 1 118 -107 250 -240z"/>
<path d="M1575 3597 c-68 -26 -114 -86 -117 -150 -3 -87 83 -100 112 -17 19
53 39 68 77 54 18 -6 31 -20 36 -39 19 -64 46 -82 88 -61 25 12 36 57 25 102
-9 36 -56 85 -101 105 -46 21 -77 23 -120 6z"/>
<path d="M2145 3591 c-45 -20 -92 -69 -101 -105 -11 -45 0 -90 25 -102 42 -21
69 -3 88 61 5 19 18 33 36 39 38 14 58 -1 77 -54 20 -57 68 -73 101 -33 29 34
-3 136 -54 173 -58 41 -113 48 -172 21z"/>
<path d="M1647 3122 c-29 -32 -20 -62 29 -110 73 -70 142 -97 244 -97 76 0 93
4 152 33 73 36 138 100 138 135 0 29 -29 57 -59 57 -12 0 -41 -18 -65 -40 -54
-50 -101 -70 -166 -70 -65 0 -112 20 -166 70 -48 44 -81 51 -107 22z"/>
<path d="M1030 753 c-40 -14 -53 -69 -22 -96 16 -15 46 -17 214 -17 176 0 196
2 211 18 24 26 21 68 -5 86 -18 13 -55 16 -203 15 -99 0 -187 -3 -195 -6z"/>
<path d="M3220 1900 c-20 -20 -20 -33 -20 -913 0 -853 1 -895 18 -910 17 -16
95 -17 914 -17 854 0 896 1 911 18 16 17 17 95 17 914 0 854 -1 896 -18 911
-17 16 -95 17 -910 17 -879 0 -892 0 -912 -20z m620 -275 l0 -175 -260 0 -260
0 0 175 0 175 260 0 260 0 0 -175z m470 -110 c0 -157 -3 -285 -6 -285 -3 0
-40 25 -81 55 -42 30 -83 55 -92 55 -10 0 -51 -25 -91 -55 -40 -30 -75 -55
-77 -55 -2 0 -3 128 -3 285 l0 285 175 0 175 0 0 -285z m638 113 l-3 -173
-260 0 -260 0 -3 173 -2 172 265 0 265 0 -2 -172z m-1108 -415 c0 -192 24
-205 176 -92 52 38 101 72 109 75 7 3 59 -29 115 -70 105 -78 130 -88 162 -59
16 14 18 33 18 145 l0 128 263 -2 262 -3 0 -580 0 -580 -812 -3 -813 -2 0 585
0 585 260 0 260 0 0 -127z"/>
<path d="M3443 554 c-15 -24 -15 -29 -2 -53 l15 -26 321 -3 c282 -2 323 0 337
14 21 21 20 57 -2 77 -16 15 -55 17 -335 17 l-317 0 -17 -26z"/>
<path d="M3455 385 c-30 -29 -31 -49 -5 -75 18 -18 33 -20 153 -20 150 0 177
9 177 60 0 50 -28 60 -173 60 -122 0 -129 -1 -152 -25z"/>
</g>
</svg>
