<?xml version="1.0" standalone="no"?>
<svg version="1.0" xmlns="http://www.w3.org/2000/svg"
 width="24px" height="24px" viewBox="0 0 512.000000 512.000000"
 preserveAspectRatio="xMidYMid meet">

<g transform="translate(0.000000,512.000000) scale(0.100000,-0.100000)"
fill="#000000" stroke="none">
<path d="M2385 5064 c-371 -38 -624 -108 -920 -254 -263 -129 -478 -284 -691
-495 -387 -384 -614 -843 -701 -1412 -23 -150 -23 -536 0 -686 72 -473 234
-852 515 -1207 89 -111 295 -320 402 -406 360 -290 764 -464 1235 -531 139
-20 502 -23 635 -4 573 78 1071 325 1485 736 386 383 616 845 702 1412 25 169
23 528 -5 708 -65 419 -225 802 -472 1130 -417 555 -982 892 -1662 990 -101
15 -443 27 -523 19z m401 -225 c447 -43 883 -224 1228 -509 l88 -73 -1618
-1618 c-891 -891 -1620 -1619 -1621 -1619 -10 0 -162 198 -219 285 -543 827
-489 1929 130 2690 493 605 1242 919 2012 844z m1545 -826 c228 -276 404 -646
473 -996 100 -502 35 -1010 -188 -1464 -508 -1032 -1683 -1525 -2778 -1166
-251 82 -528 234 -732 403 l-88 73 1618 1618 c891 891 1620 1619 1621 1619 1
0 34 -39 74 -87z"/>
</g>
</svg>
